<?xml version="1.0" standalone="no"?>
<!DOCTYPE svg PUBLIC "-//W3C//DTD SVG 20010904//EN"
 "http://www.w3.org/TR/2001/REC-SVG-20010904/DTD/svg10.dtd">
<svg version="1.0" xmlns="http://www.w3.org/2000/svg"
 width="461.000000pt" height="67.000000pt" viewBox="0 0 461.000000 67.000000"
 preserveAspectRatio="xMidYMid meet">
<metadata>
Created by potrace 1.15, written by Peter Selinger 2001-2017
</metadata>
<g transform="translate(0.000000,67.000000) scale(0.100000,-0.100000)"
fill="white" stroke="none">
<path d="M20 335 l0 -315 2285 0 2285 0 0 315 0 315 -2285 0 -2285 0 0 -315z
m650 0 l0 -295 -315 0 -315 0 0 295 0 295 315 0 315 0 0 -295z m650 0 l0 -295
-315 0 -315 0 0 295 0 295 315 0 315 0 0 -295z m650 0 l0 -295 -315 0 -315 0
0 295 0 295 315 0 315 0 0 -295z m650 0 l0 -295 -315 0 -315 0 0 295 0 295
315 0 315 0 0 -295z m650 0 l0 -295 -315 0 -315 0 0 295 0 295 315 0 315 0 0
-295z m650 0 l0 -295 -315 0 -315 0 0 295 0 295 315 0 315 0 0 -295z m650 0
l0 -295 -315 0 -315 0 0 295 0 295 315 0 315 0 0 -295z"/>
<path d="M301 457 c-44 -22 -66 -63 -66 -122 0 -60 22 -99 69 -125 16 -8 43
-30 61 -47 28 -28 40 -33 81 -32 l49 0 -34 12 c-38 13 -65 46 -43 54 31 12 73
58 83 93 17 56 4 108 -38 147 -30 29 -41 33 -86 33 -29 0 -63 -6 -76 -13z
m122 -37 c24 -46 19 -160 -8 -190 -26 -29 -71 -26 -91 5 -20 30 -29 100 -20
150 15 80 85 100 119 35z"/>
<path d="M883 456 c14 -11 17 -30 17 -110 0 -90 2 -99 25 -121 31 -32 110 -35
146 -6 22 17 24 28 27 120 3 90 6 103 25 116 20 14 18 15 -33 14 -47 0 -52 -2
-32 -11 21 -10 22 -17 22 -108 0 -109 -11 -130 -66 -130 -48 0 -54 14 -54 125
0 96 1 103 23 113 18 9 10 11 -48 11 -60 0 -68 -1 -52 -13z"/>
<path d="M1590 349 c-29 -66 -59 -123 -67 -126 -27 -11 -12 -23 30 -23 39 1
41 2 23 15 -16 12 -18 19 -8 40 10 21 18 25 55 25 38 0 45 -4 56 -27 11 -23
10 -29 -5 -40 -15 -11 -8 -13 52 -13 59 1 67 3 52 14 -10 7 -40 64 -68 127
-28 63 -55 117 -59 122 -4 4 -31 -47 -61 -114z"/>
<path d="M2178 453 c20 -14 22 -23 22 -118 0 -95 -2 -104 -22 -118 -22 -15
-21 -16 27 -16 50 -1 50 0 27 17 -21 16 -23 24 -20 104 l3 87 90 -107 90 -107
3 123 c2 97 6 124 17 129 29 11 14 23 -27 23 l-43 0 23 -18 c21 -16 23 -25 20
-82 l-3 -64 -65 82 -65 81 -50 0 c-48 0 -49 -1 -27 -16z"/>
<path d="M2850 438 c1 -30 2 -31 12 -13 6 11 11 21 12 22 1 1 13 4 29 8 l27 7
0 -119 c0 -114 -1 -120 -22 -131 -19 -9 -9 -11 52 -11 61 0 71 2 53 11 -22 11
-23 17 -23 130 0 107 2 118 18 118 22 0 46 -18 60 -45 10 -17 11 -15 12 18 l0
37 -115 0 -115 0 0 -32z"/>
<path d="M3483 456 c14 -11 17 -30 17 -110 0 -90 2 -99 25 -121 31 -32 110
-35 146 -6 22 17 24 28 27 120 3 90 6 103 25 116 20 14 18 15 -33 14 -47 0
-52 -2 -32 -11 21 -10 22 -17 22 -108 0 -109 -11 -130 -66 -130 -48 0 -54 14
-54 125 0 96 1 103 23 113 18 9 10 11 -48 11 -60 0 -68 -1 -52 -13z"/>
<path d="M4098 458 c21 -10 22 -17 22 -118 0 -100 -2 -109 -22 -123 -22 -15
-21 -16 27 -16 48 -1 49 0 27 15 -20 14 -22 23 -22 117 l0 102 51 -115 c28
-63 52 -116 54 -118 1 -2 24 48 50 110 26 62 49 115 51 117 2 2 4 -43 4 -101
0 -99 -1 -106 -22 -116 -19 -9 -9 -11 52 -11 61 0 71 2 53 11 -22 11 -23 17
-23 123 0 106 1 112 23 123 19 9 14 11 -34 11 l-57 1 -35 -87 -35 -88 -22 50
c-12 28 -29 67 -37 88 -15 37 -16 37 -72 36 -48 0 -53 -2 -33 -11z"/>
</g>
</svg>
